<svg xmlns="http://www.w3.org/2000/svg" viewBox="0 0 900 560" role="img" aria-label="Captura 3">
  <defs>
    <linearGradient id="bg" x1="0" y1="0" x2="1" y2="1">
      <stop offset="0" stop-color="#ffffff" stop-opacity="0.95"/>
      <stop offset="1" stop-color="#eaf0ff" stop-opacity="0.95"/>
    </linearGradient>
  </defs>
  <rect width="900" height="560" rx="28" fill="url(#bg)"/>
  <rect x="40" y="40" width="190" height="18" rx="9" fill="#2d6cdf" fill-opacity="0.7"/>
  <rect x="40" y="80" width="320" height="12" rx="6" fill="#0f172a" fill-opacity="0.14"/>

  <g transform="translate(40 130)">
    <rect width="820" height="370" rx="26" fill="#0f172a" fill-opacity="0.05"/>
    <g transform="translate(26 26)">
      <rect width="768" height="110" rx="22" fill="#2d6cdf" fill-opacity="0.12"/>
      <rect x="22" y="28" width="230" height="14" rx="7" fill="#2d6cdf" fill-opacity="0.45"/>
      <rect x="22" y="56" width="340" height="12" rx="6" fill="#2d6cdf" fill-opacity="0.24"/>
      <rect x="22" y="78" width="270" height="12" rx="6" fill="#2d6cdf" fill-opacity="0.2"/>
      <rect x="620" y="34" width="120" height="34" rx="17" fill="#2d6cdf" fill-opacity="0.8"/>
    </g>

    <g transform="translate(26 160)">
      <rect width="500" height="184" rx="22" fill="#2d6cdf" fill-opacity="0.10"/>
      <rect x="22" y="26" width="210" height="14" rx="7" fill="#2d6cdf" fill-opacity="0.4"/>
      <rect x="22" y="56" width="360" height="12" rx="6" fill="#2d6cdf" fill-opacity="0.22"/>
      <rect x="22" y="78" width="320" height="12" rx="6" fill="#2d6cdf" fill-opacity="0.18"/>
      <rect x="22" y="100" width="280" height="12" rx="6" fill="#2d6cdf" fill-opacity="0.16"/>
    </g>

    <g transform="translate(546 160)">
      <rect width="248" height="184" rx="22" fill="#0f172a" fill-opacity="0.06"/>
      <circle cx="60" cy="70" r="20" fill="#2d6cdf" fill-opacity="0.35"/>
      <rect x="94" y="58" width="120" height="12" rx="6" fill="#0f172a" fill-opacity="0.18"/>
      <rect x="94" y="80" width="90" height="12" rx="6" fill="#0f172a" fill-opacity="0.12"/>
      <rect x="24" y="126" width="200" height="14" rx="7" fill="#0f172a" fill-opacity="0.14"/>
    </g>
  </g>
</svg>
