<svg xmlns="http://www.w3.org/2000/svg" viewBox="0 0 900 560" role="img" aria-label="Captura 2">
  <defs>
    <linearGradient id="bg" x1="0" y1="0" x2="1" y2="1">
      <stop offset="0" stop-color="#ffffff" stop-opacity="0.95"/>
      <stop offset="1" stop-color="#eaf0ff" stop-opacity="0.95"/>
    </linearGradient>
  </defs>
  <rect width="900" height="560" rx="28" fill="url(#bg)"/>
  <rect x="40" y="40" width="220" height="18" rx="9" fill="#0f172a" fill-opacity="0.2"/>
  <rect x="40" y="80" width="280" height="12" rx="6" fill="#0f172a" fill-opacity="0.12"/>

  <g transform="translate(40 130)">
    <rect width="820" height="370" rx="26" fill="#0f172a" fill-opacity="0.05"/>
    <g transform="translate(26 26)">
      <rect width="230" height="140" rx="22" fill="#2d6cdf" fill-opacity="0.12"/>
      <rect x="20" y="26" width="150" height="14" rx="7" fill="#2d6cdf" fill-opacity="0.45"/>
      <rect x="20" y="54" width="180" height="12" rx="6" fill="#2d6cdf" fill-opacity="0.25"/>
      <rect x="20" y="76" width="130" height="12" rx="6" fill="#2d6cdf" fill-opacity="0.2"/>
    </g>
    <g transform="translate(276 26)">
      <rect width="230" height="140" rx="22" fill="#2d6cdf" fill-opacity="0.12"/>
      <rect x="20" y="26" width="140" height="14" rx="7" fill="#2d6cdf" fill-opacity="0.45"/>
      <rect x="20" y="54" width="190" height="12" rx="6" fill="#2d6cdf" fill-opacity="0.25"/>
      <rect x="20" y="76" width="150" height="12" rx="6" fill="#2d6cdf" fill-opacity="0.2"/>
    </g>
    <g transform="translate(526 26)">
      <rect width="230" height="140" rx="22" fill="#2d6cdf" fill-opacity="0.12"/>
      <rect x="20" y="26" width="160" height="14" rx="7" fill="#2d6cdf" fill-opacity="0.45"/>
      <rect x="20" y="54" width="170" height="12" rx="6" fill="#2d6cdf" fill-opacity="0.25"/>
      <rect x="20" y="76" width="120" height="12" rx="6" fill="#2d6cdf" fill-opacity="0.2"/>
    </g>

    <g transform="translate(26 190)">
      <rect width="730" height="150" rx="22" fill="#2d6cdf" fill-opacity="0.10"/>
      <rect x="22" y="26" width="210" height="14" rx="7" fill="#2d6cdf" fill-opacity="0.42"/>
      <rect x="22" y="56" width="340" height="12" rx="6" fill="#2d6cdf" fill-opacity="0.25"/>
      <rect x="22" y="78" width="300" height="12" rx="6" fill="#2d6cdf" fill-opacity="0.22"/>
      <rect x="22" y="100" width="250" height="12" rx="6" fill="#2d6cdf" fill-opacity="0.18"/>
    </g>
  </g>
</svg>
