<svg xmlns="http://www.w3.org/2000/svg" viewBox="0 0 1200 840" role="img" aria-label="Stock Pocket hero">
  <defs>
    <linearGradient id="bg" x1="0" y1="0" x2="1" y2="1">
      <stop offset="0" stop-color="#2d6cdf" stop-opacity="0.25"/>
      <stop offset="1" stop-color="#0f172a" stop-opacity="0.35"/>
    </linearGradient>
    <linearGradient id="card" x1="0" y1="0" x2="1" y2="1">
      <stop offset="0" stop-color="#ffffff" stop-opacity="0.95"/>
      <stop offset="1" stop-color="#eaf0ff" stop-opacity="0.95"/>
    </linearGradient>
  </defs>

  <rect width="1200" height="840" rx="44" fill="url(#bg)"/>

  <g opacity="0.7">
    <path d="M0 220h1200" stroke="#94a3b8" stroke-opacity="0.28"/>
    <path d="M0 420h1200" stroke="#94a3b8" stroke-opacity="0.18"/>
    <path d="M0 620h1200" stroke="#94a3b8" stroke-opacity="0.22"/>
    <path d="M200 0v840" stroke="#94a3b8" stroke-opacity="0.20"/>
    <path d="M520 0v840" stroke="#94a3b8" stroke-opacity="0.14"/>
    <path d="M860 0v840" stroke="#94a3b8" stroke-opacity="0.16"/>
  </g>

  <g transform="translate(120 120)">
    <rect x="0" y="0" width="420" height="260" rx="26" fill="url(#card)" stroke="#e3e8f0"/>
    <rect x="24" y="28" width="210" height="18" rx="9" fill="#2d6cdf" fill-opacity="0.85"/>
    <rect x="24" y="64" width="328" height="14" rx="7" fill="#1b2430" fill-opacity="0.2"/>
    <rect x="24" y="88" width="280" height="14" rx="7" fill="#1b2430" fill-opacity="0.16"/>

    <rect x="24" y="132" width="372" height="92" rx="18" fill="#2d6cdf" fill-opacity="0.12"/>
    <rect x="44" y="154" width="150" height="12" rx="6" fill="#2d6cdf" fill-opacity="0.6"/>
    <rect x="44" y="176" width="220" height="12" rx="6" fill="#2d6cdf" fill-opacity="0.38"/>
    <rect x="44" y="198" width="190" height="12" rx="6" fill="#2d6cdf" fill-opacity="0.32"/>
  </g>

  <g transform="translate(590 160)">
    <rect x="0" y="0" width="490" height="520" rx="34" fill="url(#card)" stroke="#e3e8f0"/>
    <rect x="32" y="36" width="220" height="16" rx="8" fill="#0f172a" fill-opacity="0.22"/>

    <g transform="translate(32 88)">
      <rect width="426" height="120" rx="24" fill="#2d6cdf" fill-opacity="0.12"/>
      <circle cx="52" cy="60" r="26" fill="#2d6cdf" fill-opacity="0.55"/>
      <rect x="96" y="44" width="240" height="14" rx="7" fill="#2d6cdf" fill-opacity="0.5"/>
      <rect x="96" y="68" width="190" height="14" rx="7" fill="#2d6cdf" fill-opacity="0.32"/>
    </g>

    <g transform="translate(32 232)">
      <rect width="426" height="120" rx="24" fill="#0f172a" fill-opacity="0.08"/>
      <rect x="24" y="28" width="180" height="14" rx="7" fill="#0f172a" fill-opacity="0.22"/>
      <rect x="24" y="56" width="260" height="14" rx="7" fill="#0f172a" fill-opacity="0.16"/>
      <rect x="24" y="84" width="210" height="14" rx="7" fill="#0f172a" fill-opacity="0.14"/>
    </g>

    <g transform="translate(32 376)">
      <rect width="426" height="112" rx="24" fill="#2d6cdf" fill-opacity="0.10"/>
      <rect x="24" y="26" width="140" height="14" rx="7" fill="#2d6cdf" fill-opacity="0.5"/>
      <rect x="24" y="54" width="300" height="14" rx="7" fill="#2d6cdf" fill-opacity="0.28"/>
      <rect x="24" y="82" width="260" height="14" rx="7" fill="#2d6cdf" fill-opacity="0.22"/>
    </g>
  </g>
</svg>
